<svg xmlns="http://www.w3.org/2000/svg" viewBox="0 0 512 512">
  <defs>
    <linearGradient id="bg" x1="50" y1="30" x2="455" y2="485" gradientUnits="userSpaceOnUse">
      <stop stop-color="#123A63"/>
      <stop offset="1" stop-color="#071B35"/>
    </linearGradient>
    <linearGradient id="flow" x1="120" y1="130" x2="395" y2="390" gradientUnits="userSpaceOnUse">
      <stop stop-color="#42E8D0"/>
      <stop offset="1" stop-color="#13A7E7"/>
    </linearGradient>
  </defs>
  <rect x="16" y="16" width="480" height="480" rx="112" fill="url(#bg)"/>
  <path d="M132 221c16-69 78-121 152-121 47 0 90 21 119 54" fill="none" stroke="url(#flow)" stroke-width="42" stroke-linecap="round"/>
  <path d="m373 105 42 59-70 14" fill="none" stroke="#42E8D0" stroke-width="30" stroke-linecap="round" stroke-linejoin="round"/>
  <path d="M380 291c-16 69-78 121-152 121-47 0-90-21-119-54" fill="none" stroke="url(#flow)" stroke-width="42" stroke-linecap="round"/>
  <path d="m139 407-42-59 70-14" fill="none" stroke="#13A7E7" stroke-width="30" stroke-linecap="round" stroke-linejoin="round"/>
  <path d="m191 202 65-34 65 34v88l-65 35-65-35z" fill="#F8FBFF" stroke="#B9E9F5" stroke-width="10" stroke-linejoin="round"/>
  <path d="m191 202 65 36 65-36M256 238v87" fill="none" stroke="#189AC8" stroke-width="10" stroke-linejoin="round"/>
</svg>
